<svg width="16" height="16" viewBox="0 0 512 512" fill="none" xmlns="http://www.w3.org/2000/svg">
<path d="M0 80C0 35.8172 35.8172 0 80 0H432C476.183 0 512 35.8172 512 80V432C512 476.183 476.183 512 432 512H80C35.8172 512 0 476.183 0 432V80Z" fill="url(#paint0_linear_12_68)"/>
<path d="M421 256C421 347.127 347.127 421 256 421C164.873 421 91 347.127 91 256C91 164.873 164.873 91 256 91C347.127 91 421 164.873 421 256Z" fill="#F5F5F5"/>
<path d="M382.677 256C382.677 325.962 325.962 382.677 256 382.677C186.038 382.677 129.323 325.962 129.323 256C129.323 186.038 186.038 129.323 256 129.323C325.962 129.323 382.677 186.038 382.677 256Z" fill="#373A3F"/>
<path d="M349.677 256C349.677 307.737 307.737 349.677 256 349.677C204.263 349.677 162.323 307.737 162.323 256C162.323 204.263 204.263 162.323 256 162.323C307.737 162.323 349.677 204.263 349.677 256Z" fill="#616065"/>
<path d="M315.613 256C315.613 288.923 288.923 315.613 256 315.613C223.077 315.613 196.387 288.923 196.387 256C196.387 223.077 223.077 196.387 256 196.387C288.923 196.387 315.613 223.077 315.613 256Z" fill="#1A2D39"/>
<path d="M283 229C283 243.912 270.912 256 256 256C241.088 256 229 243.912 229 229C229 214.088 241.088 202 256 202C270.912 202 283 214.088 283 229Z" fill="#D9D9D9"/>
<path d="M265 303C265 307.971 260.971 312 256 312C251.029 312 247 307.971 247 303C247 298.029 251.029 294 256 294C260.971 294 265 298.029 265 303Z" fill="#D9D9D9"/>
<path fill-rule="evenodd" clip-rule="evenodd" d="M51 93.0513V51H93.0513V71H71V93.0513H51ZM229.718 51H145.615V71H229.718V51ZM282.282 51V71H366.385V51H282.282ZM418.949 51V71H441V93.0513H461V51H418.949ZM461 145.615H441V229.718H461V145.615ZM461 282.282H441V366.385H461V282.282ZM461 418.949H441V441H418.949V461H461V418.949ZM366.385 461V441H282.282V461H366.385ZM229.718 461V441H145.615V461H229.718ZM93.0513 461V441H71V418.949H51V461H93.0513ZM51 366.385H71V282.282H51V366.385ZM51 229.718H71V145.615H51V229.718Z" fill="white"/>
<path d="M51 29H71V51H51V29Z" fill="white"/>
<path d="M26 71V51H51V71H26Z" fill="white"/>
<path d="M461 483H441V461H461V483Z" fill="white"/>
<path d="M488.5 441V461H461V441H488.5Z" fill="white"/>
<defs>
<linearGradient id="paint0_linear_12_68" x1="20.5" y1="23" x2="498.5" y2="501" gradientUnits="userSpaceOnUse">
<stop offset="0.00350767" stop-color="#485DCA"/>
<stop offset="1" stop-color="#9850F5"/>
</linearGradient>
</defs>
</svg>
