<svg xmlns="http://www.w3.org/2000/svg" version="1.1" xmlns:xlink="http://www.w3.org/1999/xlink" width="512" height="512" x="0" y="0" viewBox="0 0 96 96" style="enable-background:new 0 0 512 512" xml:space="preserve" fill-rule="evenodd" class=""><g><path fill="#9aeba3" d="M94.04 33.154c.336-2.298-.346-4.63-1.866-6.387S88.444 24 86.12 24H38.266a8.002 8.002 0 0 0-7.92 6.845l-4.67 32A8.005 8.005 0 0 0 33.596 72l47.855.001a8.003 8.003 0 0 0 7.92-6.845l4.67-32z" opacity="1" data-original="#9aeba3" class=""></path><path fill="#81e48c" d="M25.52 63.454a8.04 8.04 0 0 0 1.93 5.779A8.004 8.004 0 0 0 33.5 72h47.83c3.98 0 7.35-2.915 7.92-6.846l.11-.74-22.11-15.393-7.79-5.537z" opacity="1" data-original="#81e48c" class=""></path><path fill="#b9f1c0" d="m30.08 32.033 28.17 22.605 35.74-22.945a7.931 7.931 0 0 0-1.94-4.926A8.004 8.004 0 0 0 86 24H38.17a8.01 8.01 0 0 0-7.92 6.846z" opacity="1" data-original="#b9f1c0" class=""></path><path fill="#012030" d="M28.37 30H8c-1.1 0-2 .896-2 2s.9 2 2 2h19.77l-.73 5H16c-1.1 0-2 .896-2 2s.9 2 2 2h10.46l-.88 6H2c-1.1 0-2 .896-2 2s.9 2 2 2h23l-.87 6H8c-1.1 0-2 .896-2 2s.9 2 2 2h15.55c-.27 2.728.59 5.457 2.39 7.541A9.997 9.997 0 0 0 33.5 74h47.83c4.97 0 9.18-3.643 9.9-8.557l4.67-32c.41-2.874-.44-5.787-2.34-7.984S88.9 22 86 22H38.17c-4.78 0-8.86 3.37-9.8 8zm22.2 21.036L27.53 64.592c.12 1.22.62 2.387 1.43 3.333A6.007 6.007 0 0 0 33.5 70h47.83c2.82 0 5.24-1.956 5.85-4.663L67.09 51.343l-7.76 4.978c-.72.465-1.66.415-2.33-.123zm20.16-2.031 17.12 11.919 3.68-25.273zM28.08 59.63l19.15-11.272L31.55 35.78zm63.78-28.94a6.134 6.134 0 0 0-1.32-2.615A6.007 6.007 0 0 0 86 26H38.17a6.002 6.002 0 0 0-5.94 5.134l-.01.055 26.16 20.989z" opacity="1" data-original="#012030" class=""></path></g></svg>