<svg width="370" height="370" viewBox="0 0 370 370" fill="none" xmlns="http://www.w3.org/2000/svg">
<rect width="370" height="370" fill="black"/>
<rect x="39" y="99" width="120" height="42" rx="10" fill="#19D768"/>
<rect x="131" y="164" width="62" height="42" rx="10" fill="#19D768"/>
<rect x="39" y="229" width="120" height="42" rx="10" fill="#19D768"/>
<rect x="178" y="99" width="120" height="42" rx="10" fill="#19D768"/>
<rect x="212" y="164" width="120" height="42" rx="10" fill="#19D768"/>
<rect x="178" y="229" width="120" height="42" rx="10" fill="#19D768"/>
<path d="M92.5676 164.34C93.0546 164.56 93.4951 164.879 93.8633 165.279L109.831 182.038C110.58 182.824 111 183.889 111 185C111 186.111 110.58 187.176 109.831 187.962L93.8633 204.721C93.4951 205.121 93.0546 205.44 92.5676 205.66C92.0805 205.879 91.5567 205.995 91.0267 206C90.4966 206.005 89.9709 205.899 89.4803 205.688C88.9897 205.477 88.544 205.166 88.1692 204.773C87.7944 204.379 87.498 203.912 87.2973 203.397C87.0965 202.882 86.9955 202.33 87.0002 201.774C87.0048 201.218 87.1149 200.668 87.3241 200.157C87.5333 199.645 87.8374 199.183 88.2187 198.797L101.364 185L88.2187 171.203C87.8374 170.817 87.5333 170.355 87.3241 169.843C87.1149 169.332 87.0048 168.782 87.0002 168.226C86.9955 167.67 87.0965 167.118 87.2973 166.603C87.498 166.088 87.7944 165.621 88.1692 165.227C88.544 164.834 88.9897 164.523 89.4803 164.312C89.9709 164.101 90.4966 163.995 91.0267 164C91.5567 164.005 92.0805 164.121 92.5676 164.34Z" fill="#EBEBEB"/>
</svg>
